<?xml version="1.0" standalone="no"?>
<!DOCTYPE svg PUBLIC "-//W3C//DTD SVG 20010904//EN"
 "http://www.w3.org/TR/2001/REC-SVG-20010904/DTD/svg10.dtd">
<svg version="1.0" xmlns="http://www.w3.org/2000/svg"
 width="1024.000000pt" height="1024.000000pt" viewBox="0 0 1024.000000 1024.000000"
 preserveAspectRatio="xMidYMid meet">

<g transform="translate(0.000000,1024.000000) scale(0.100000,-0.100000)"
fill="#000000" stroke="none">
<path d="M0 5120 l0 -5120 5120 0 5120 0 0 5120 0 5120 -5120 0 -5120 0 0
-5120z m3393 3959 c12 -6 83 -72 158 -145 138 -136 156 -147 200 -123 11 5 77
68 147 140 125 127 128 129 172 129 43 0 46 -2 185 -140 100 -99 148 -140 165
-140 16 0 65 41 165 140 139 137 143 140 186 140 42 0 46 -3 184 -140 100 -99
148 -140 165 -140 16 0 65 41 165 140 138 136 143 140 185 140 42 0 47 -4 174
-129 141 -138 165 -156 199 -145 12 3 83 66 158 140 134 133 146 140 204 134
11 -1 83 -64 161 -141 100 -99 147 -139 164 -139 17 0 63 39 159 134 75 73
146 139 158 145 32 16 64 13 100 -9 68 -41 63 125 63 -2027 0 -1927 0 -1948
-20 -1981 -26 -42 -77 -67 -122 -58 -27 5 -62 33 -159 132 -121 123 -161 154
-195 154 -9 0 -81 -63 -159 -140 -189 -186 -172 -186 -352 -8 -127 127 -150
146 -182 147 -8 1 -78 -62 -156 -139 l-142 -140 -49 0 -49 0 -130 134 c-72 74
-141 136 -154 139 -38 9 -58 -6 -186 -140 -120 -125 -120 -125 -173 -131 l-53
-5 -137 142 c-180 186 -159 186 -347 1 -125 -123 -146 -140 -175 -140 -29 0
-50 16 -170 135 -181 180 -168 180 -339 11 -131 -130 -177 -160 -230 -150 -44
9 -83 55 -92 111 -4 26 -8 914 -8 1972 l-1 1923 39 39 c41 41 80 50 124 28z
m-1323 -4591 c83 -36 139 -112 140 -189 l0 -36 -81 -7 c-44 -4 -84 -4 -90 -1
-5 4 -9 17 -9 30 0 33 -53 75 -96 75 -70 0 -110 -57 -84 -120 13 -32 53 -54
177 -100 109 -41 143 -66 173 -125 20 -41 25 -64 24 -130 0 -86 -14 -126 -63
-178 -78 -85 -269 -109 -388 -49 -82 42 -139 135 -131 215 l3 32 88 3 87 3 0
-35 c0 -68 77 -116 154 -95 47 13 71 43 71 91 0 49 -37 86 -111 113 -112 40
-212 93 -237 126 -90 120 -41 321 92 376 85 36 200 36 281 1z m1415 -10 c62
-32 88 -59 117 -123 22 -48 23 -61 23 -290 0 -269 -5 -294 -76 -364 -56 -57
-110 -75 -219 -76 -119 0 -172 19 -230 81 -71 77 -74 91 -78 341 -4 272 3 309
77 383 64 64 116 81 241 77 79 -3 103 -8 145 -29z m-987 -145 l2 -163 110 0
110 0 0 159 c0 88 3 161 8 163 4 2 46 2 95 0 l87 -3 -2 -422 -3 -422 -90 0
-90 0 -3 173 -2 172 -110 0 -110 0 -2 -172 -3 -173 -90 0 -90 0 -3 414 c-2
304 1 417 9 428 9 10 33 13 93 11 l81 -3 3 -162z m1366 159 c4 -6 52 -265 104
-562 l6 -35 7 35 c5 19 29 145 54 280 25 135 50 255 55 268 9 20 16 22 95 22
80 0 86 -2 94 -22 4 -13 32 -148 62 -300 29 -153 54 -276 55 -275 1 1 23 130
50 287 26 157 52 291 57 298 9 11 157 18 168 7 3 -2 -10 -78 -28 -167 -48
-238 -134 -650 -139 -671 -5 -16 -17 -17 -107 -15 l-102 3 -12 60 c-80 395
-101 488 -107 465 -4 -14 -28 -137 -54 -275 l-48 -250 -104 0 -104 0 -38 175
c-21 96 -61 281 -90 411 -28 130 -48 244 -45 253 5 13 21 16 86 16 44 0 82 -4
85 -8z m1354 -7 c5 -5 32 -102 61 -215 65 -258 77 -299 85 -280 3 8 30 116 61
240 30 124 60 235 65 248 9 21 15 22 122 22 62 0 119 -4 126 -8 10 -7 12 -99
10 -428 l-3 -419 -82 -3 c-46 -2 -84 -2 -85 0 -1 2 -4 131 -7 288 l-6 285 -64
-235 c-35 -129 -66 -243 -69 -253 -4 -15 -15 -17 -80 -15 l-76 3 -68 244 c-37
134 -70 247 -73 249 -3 3 -5 -124 -5 -282 l0 -287 -77 3 -78 3 -3 415 c-1 228
0 419 2 425 5 13 232 13 244 0z m1147 -70 l0 -80 -152 -3 -153 -3 0 -89 0 -90
134 0 134 0 4 -71 c2 -38 -1 -74 -6 -80 -6 -5 -68 -9 -138 -9 l-128 0 0 -95 0
-94 158 -3 157 -3 0 -75 0 -75 -247 -3 -248 -2 0 423 c0 233 3 427 7 431 4 3
113 5 242 4 l236 -3 0 -80z m890 0 l0 -80 -97 -3 -98 -3 -2 -342 -3 -342 -85
0 -85 0 -5 340 -5 340 -95 5 -95 5 -3 69 c-2 38 -1 75 2 83 5 11 57 13 288 11
l283 -3 0 -80z m273 -82 l2 -163 105 0 105 0 2 163 3 162 90 0 90 0 0 -425 0
-425 -90 0 -90 0 -3 173 -2 172 -105 0 -105 0 -2 -172 -3 -173 -90 0 -90 0 -3
415 c-1 228 0 421 3 428 3 9 28 12 92 10 l88 -3 3 -162z m1017 82 l0 -80 -152
-3 -153 -3 0 -89 0 -89 133 -3 132 -3 3 -69 c2 -49 -1 -72 -10 -77 -7 -5 -68
-9 -135 -9 l-123 0 0 -95 0 -95 160 0 161 0 -3 -77 -3 -78 -250 0 -250 0 -3
414 c-2 300 1 417 9 428 10 11 57 13 248 11 l236 -3 0 -80z m-4541 -1034 c124
-44 207 -117 259 -229 27 -59 31 -77 31 -162 l1 -95 -145 -5 c-80 -3 -150 -4
-156 -2 -6 2 -15 31 -18 65 -16 134 -64 187 -172 187 -105 0 -155 -49 -179
-173 -20 -105 -21 -546 -1 -628 28 -119 77 -163 183 -163 96 0 145 44 164 149
18 96 6 90 175 90 l149 0 3 -41 c4 -55 -21 -162 -54 -225 -74 -148 -211 -226
-414 -236 -231 -12 -410 78 -487 244 -49 105 -55 169 -51 533 4 319 5 338 27
400 58 164 183 275 347 309 80 16 269 6 338 -18z m4269 14 c190 -40 318 -178
321 -349 l1 -71 -145 0 -144 0 -8 45 c-14 84 -68 132 -156 138 -106 8 -162
-44 -162 -150 0 -94 45 -132 263 -222 278 -115 344 -180 367 -362 41 -330
-167 -533 -525 -511 -147 9 -253 55 -339 146 -69 75 -100 148 -101 241 l0 75
148 5 147 5 0 -35 c0 -115 78 -190 198 -190 135 0 210 115 152 234 -24 51 -75
85 -199 133 -143 54 -267 119 -317 165 -24 22 -56 66 -71 97 -27 53 -28 63
-28 196 0 138 1 141 31 200 55 104 148 175 274 209 71 19 207 20 293 1z
m-5665 -149 c2 -78 -1 -123 -9 -132 -9 -11 -47 -14 -171 -14 l-160 0 3 -568
c2 -312 -1 -573 -5 -580 -10 -17 -287 -17 -304 0 -9 9 -12 152 -12 580 l0 568
-153 0 c-106 0 -157 4 -165 12 -15 15 -17 239 -3 254 6 5 194 7 493 4 l483 -5
3 -119z m2870 110 c25 -22 45 12 -182 -316 -93 -135 -169 -249 -170 -255 0 -5
89 -190 198 -410 146 -296 195 -404 188 -415 -7 -12 -38 -16 -158 -18 -82 -1
-159 0 -170 2 -16 4 -35 36 -74 123 -132 298 -204 453 -209 453 -3 0 -26 -28
-51 -63 l-45 -61 -5 -226 -5 -225 -141 -3 c-111 -2 -144 0 -153 11 -8 11 -10
197 -9 713 l3 699 150 0 150 0 5 -285 5 -285 36 60 c149 248 305 493 322 508
19 17 37 18 158 15 116 -2 140 -6 157 -22z m2070 16 c9 -7 12 -41 10 -138 l-3
-129 -157 -3 -158 -3 -2 -577 -3 -577 -144 -3 c-97 -2 -148 1 -157 9 -12 10
-14 108 -14 580 l0 569 -149 0 c-115 0 -151 3 -160 14 -8 9 -11 54 -9 132 l3
119 460 5 c253 3 462 6 465 7 3 2 11 -1 18 -5z m-4470 -714 l-3 -713 -155 0
-155 0 -3 700 c-1 385 0 706 3 713 3 9 45 12 160 12 l155 0 -2 -712z m3390
588 c2 -78 -1 -123 -9 -132 -9 -11 -58 -14 -250 -14 l-239 0 0 -150 0 -150
208 0 c148 0 211 -3 220 -12 17 -17 17 -229 0 -246 -9 -9 -72 -12 -220 -12
l-208 0 0 -160 0 -160 244 0 c134 0 251 -3 260 -6 13 -5 16 -26 16 -129 0
-103 -3 -124 -16 -129 -9 -3 -192 -6 -408 -6 -292 0 -395 3 -404 12 -9 9 -12
180 -12 708 0 383 3 700 7 703 4 4 187 6 407 5 l401 -3 3 -119z"/>
<path d="M3829 8245 c-58 -31 -64 -128 -11 -176 l30 -27 1127 -7 c1317 -9
1498 -7 1536 19 59 38 64 129 9 179 l-30 27 -1318 0 c-1118 -1 -1321 -3 -1343
-15z"/>
<path d="M4733 7700 c-29 -12 -53 -60 -53 -104 0 -25 9 -45 29 -68 l29 -33
836 -4 c460 -2 857 0 883 4 62 9 103 49 103 100 0 47 -22 88 -55 103 -31 14
-1736 16 -1772 2z"/>
<path d="M3950 7680 c-19 -19 -20 -33 -20 -298 0 -311 2 -322 64 -322 26 0 69
27 217 136 101 75 187 141 191 148 15 22 8 63 -14 83 -55 49 -382 273 -399
273 -10 0 -28 -9 -39 -20z"/>
<path d="M4727 7179 c-24 -14 -47 -69 -47 -114 0 -24 9 -44 29 -67 l29 -33
864 0 c635 0 871 3 895 12 66 24 83 128 29 182 l-26 26 -878 2 c-614 2 -883
-1 -895 -8z"/>
<path d="M4557 6620 l-769 -5 -24 -28 c-39 -46 -28 -135 20 -169 6 -4 620 -8
1364 -8 l1353 0 24 24 c50 50 41 141 -19 177 -34 21 -69 21 -1949 9z"/>
<path d="M5280 6097 c-52 -18 -72 -63 -68 -158 2 -60 8 -82 23 -99 44 -50 46
-50 650 -50 604 0 606 0 650 50 17 19 20 36 20 109 -1 89 -15 129 -53 148 -29
14 -1181 14 -1222 0z"/>
<path d="M3269 4335 c-53 -29 -61 -66 -57 -280 3 -220 9 -237 84 -264 50 -18
87 -3 121 48 22 32 23 43 23 217 0 214 -10 257 -66 280 -42 18 -72 17 -105 -1z"/>
</g>
</svg>
